<?xml version="1.0" encoding="UTF-8" standalone="no"?>
<!-- Generator: Adobe Illustrator 18.1.1, SVG Export Plug-In . SVG Version: 6.00 Build 0)  -->

<svg
   xmlns:dc="http://purl.org/dc/elements/1.1/"
   xmlns:cc="http://creativecommons.org/ns#"
   xmlns:rdf="http://www.w3.org/1999/02/22-rdf-syntax-ns#"
   xmlns:svg="http://www.w3.org/2000/svg"
   xmlns="http://www.w3.org/2000/svg"
   xmlns:sodipodi="http://sodipodi.sourceforge.net/DTD/sodipodi-0.dtd"
   xmlns:inkscape="http://www.inkscape.org/namespaces/inkscape"
   version="1.1"
   id="Capa_1"
   x="0px"
   y="0px"
   viewBox="0 0 58.378 37.561917"
   xml:space="preserve"
   inkscape:version="0.91 r13725"
   sodipodi:docname="bike_basket.svg"
   width="58.377998"
   height="37.561916"><metadata
     id="metadata3454"><rdf:RDF><cc:Work
         rdf:about=""><dc:format>image/svg+xml</dc:format><dc:type
           rdf:resource="http://purl.org/dc/dcmitype/StillImage" /><dc:title></dc:title></cc:Work></rdf:RDF></metadata><defs
     id="defs3452" /><sodipodi:namedview
     pagecolor="#ffffff"
     bordercolor="#666666"
     borderopacity="1"
     objecttolerance="10"
     gridtolerance="10"
     guidetolerance="10"
     inkscape:pageopacity="0"
     inkscape:pageshadow="2"
     inkscape:window-width="1310"
     inkscape:window-height="862"
     id="namedview3450"
     showgrid="false"
     fit-margin-top="0"
     fit-margin-left="0"
     fit-margin-right="0"
     fit-margin-bottom="0"
     inkscape:zoom="11.117202"
     inkscape:cx="29.188999"
     inkscape:cy="18.781001"
     inkscape:window-x="0"
     inkscape:window-y="0"
     inkscape:window-maximized="0"
     inkscape:current-layer="Capa_1" /><g
     id="g3416"
     transform="translate(0,-10.408082)"><path
       style="fill:#f4000e"
       d="m 52.036,26.687 c 0.233,-0.227 0.377,-0.542 0.377,-0.892 0,-0.688 -0.557,-1.246 -1.245,-1.246 l -6.7,0 -1.779,-5.22 2.45,0.306 c 0.773,0 1.4,-1.488 1.4,-2.262 0,-0.774 -0.627,-2.263 -1.4,-2.263 l -6.908,0.862 c -0.774,0 -1.401,0.627 -1.401,1.4 0,0.773 0.627,1.399 1.401,1.399 l 2.5,0.312 -4.304,12.504 C 26.257,28.729 19.8,18.934 18.468,16.749 c 1.348,-1.768 4.655,-3.949 7.153,-4.518 0.719,-0.226 1.033,-0.32 1.033,-1.108 0,-0.788 -0.79,-0.713 -0.79,-0.713 -3.366,0.733 -5.733,2.209 -7.393,3.827 l -8.372,0 c -1.735,0 -3.147,1.412 -3.147,3.149 l 0,3.795 c 0,1.735 0.747,3.148 2.483,3.148 l 3.794,0 c 0.392,0 0.763,-0.081 1.109,-0.212 -0.097,0.626 -0.2,1.234 -0.315,1.817 C 13.121,25.699 12.179,25.561 11.204,25.561 5.026,25.562 0,30.588 0,36.765 c 0,6.177 5.026,11.204 11.204,11.204 6.179,0 11.204,-5.026 11.204,-11.204 0,-4.586 -2.772,-8.533 -6.729,-10.266 0.212,-1.069 0.4,-2.211 0.552,-3.422 1.84,2.421 6.349,7.605 10.628,11.114 -0.039,0.22 -0.069,0.442 -0.069,0.672 0,1.17 0.521,2.209 1.333,2.931 l -0.529,0.747 -0.772,1.026 -0.806,-1.032 -0.68,0.53 0.949,1.216 -0.043,0.059 1.473,1.77 0.671,-0.54 -1.014,-1.298 1.432,-1.991 c 0.571,0.323 1.223,0.521 1.925,0.521 1.109,0 2.108,-0.462 2.824,-1.2 l 2.459,0.005 c 0.433,5.785 5.267,10.363 11.161,10.363 6.178,0 11.205,-5.026 11.205,-11.204 -10e-4,-4.435 -2.596,-8.264 -6.342,-10.079 z m -5.712,0.639 0,2.664 -0.867,-2.543 c 0.286,-0.052 0.574,-0.093 0.867,-0.121 z m -5.196,-4.357 1.47,3.58 c -1.318,0.592 -2.5,1.43 -3.489,2.458 l 2.019,-6.038 z m 2.126,5.174 3.07,7.48 0,0.279 -8.587,0 c 0.314,-3.457 2.491,-6.378 5.517,-7.759 z m -30.025,-5.144 -3.794,0 c -1.002,0 -1.154,-0.815 -1.154,-1.817 l 0,-1.233 2.333,0 4.353,0 c -0.167,0.546 -0.23,0.895 -0.234,0.923 -0.046,0.522 -0.103,1.026 -0.16,1.523 -0.333,0.368 -0.809,0.604 -1.344,0.604 z m 7.457,13.765 c 0,5.228 -4.252,9.479 -9.48,9.479 -5.228,0 -9.48,-4.251 -9.48,-9.479 0,-5.228 4.253,-9.48 9.48,-9.48 0.852,0 1.674,0.125 2.46,0.336 -1.412,6.018 -3.51,9.329 -3.538,9.372 l 1.446,0.938 c 0.12,-0.186 2.271,-3.557 3.731,-9.699 3.176,1.532 5.381,4.777 5.381,8.533 z m -5.227,-18.146 -7.178,0 0,-1.231 c 0,-1.003 0.816,-1.818 1.818,-1.818 l 7.178,0 c -0.85,1.08 -1.432,2.154 -1.818,3.049 z m 1.144,1.803 c 0.141,-0.494 0.399,-1.221 0.837,-2.054 1.677,2.621 6.152,8.793 13.02,12.586 -1.16,0.08 -2.177,0.656 -2.845,1.526 C 23.327,28.746 18.524,23.06 16.603,20.421 Z m 19.41,15.481 -1.502,0 c 0.092,-0.333 0.156,-0.677 0.156,-1.039 0,-0.87 -0.291,-1.667 -0.768,-2.317 0.84,0.317 1.697,0.61 2.593,0.84 -0.255,0.803 -0.411,1.647 -0.479,2.516 z m 11.16,10.341 c -4.942,0 -9.008,-3.804 -9.437,-8.635 l 11.16,0.018 0,-1.148 0.013,0 0,-9.026 c 4.399,0.819 7.744,4.681 7.744,9.313 0,5.227 -4.252,9.478 -9.48,9.478 z"
       id="path3418"
       inkscape:connector-curvature="0" /></g><g
     id="g3420"
     transform="translate(0,-10.408082)" /><g
     id="g3422"
     transform="translate(0,-10.408082)" /><g
     id="g3424"
     transform="translate(0,-10.408082)" /><g
     id="g3426"
     transform="translate(0,-10.408082)" /><g
     id="g3428"
     transform="translate(0,-10.408082)" /><g
     id="g3430"
     transform="translate(0,-10.408082)" /><g
     id="g3432"
     transform="translate(0,-10.408082)" /><g
     id="g3434"
     transform="translate(0,-10.408082)" /><g
     id="g3436"
     transform="translate(0,-10.408082)" /><g
     id="g3438"
     transform="translate(0,-10.408082)" /><g
     id="g3440"
     transform="translate(0,-10.408082)" /><g
     id="g3442"
     transform="translate(0,-10.408082)" /><g
     id="g3444"
     transform="translate(0,-10.408082)" /><g
     id="g3446"
     transform="translate(0,-10.408082)" /><g
     id="g3448"
     transform="translate(0,-10.408082)" /></svg>